# Blender v2.92.0 OBJ File: ''
# www.blender.org
mtllib Cylinder.mtl
o Cylinder
v 0.000000 -0.500000 0.500000
v 0.000000 0.500000 0.500000
v -0.086824 -0.500000 0.492404
v -0.086824 0.500000 0.492404
v -0.171010 -0.500000 0.469846
v -0.171010 0.500000 0.469846
v -0.250000 -0.500000 0.433013
v -0.250000 0.500000 0.433013
v -0.321394 -0.500000 0.383022
v -0.321394 0.500000 0.383022
v -0.383022 -0.500000 0.321394
v -0.383022 0.500000 0.321394
v -0.433013 -0.500000 0.250000
v -0.433013 0.500000 0.250000
v -0.469846 -0.500000 0.171010
v -0.469846 0.500000 0.171010
v -0.492404 -0.500000 0.086824
v -0.492404 0.500000 0.086824
v -0.500000 -0.500000 0.000000
v -0.500000 0.500000 0.000000
v -0.492404 -0.500000 -0.086824
v -0.492404 0.500000 -0.086824
v -0.469846 -0.500000 -0.171010
v -0.469846 0.500000 -0.171010
v -0.433013 -0.500000 -0.250000
v -0.433013 0.500000 -0.250000
v -0.383022 -0.500000 -0.321394
v -0.383022 0.500000 -0.321394
v -0.321394 -0.500000 -0.383022
v -0.321394 0.500000 -0.383022
v -0.250000 -0.500000 -0.433013
v -0.250000 0.500000 -0.433013
v -0.171010 -0.500000 -0.469846
v -0.171010 0.500000 -0.469846
v -0.086824 -0.500000 -0.492404
v -0.086824 0.500000 -0.492404
v -0.000000 -0.500000 -0.500000
v -0.000000 0.500000 -0.500000
v 0.086824 -0.500000 -0.492404
v 0.086824 0.500000 -0.492404
v 0.171010 -0.500000 -0.469846
v 0.171010 0.500000 -0.469846
v 0.250000 -0.500000 -0.433013
v 0.250000 0.500000 -0.433013
v 0.321394 -0.500000 -0.383022
v 0.321394 0.500000 -0.383022
v 0.383022 -0.500000 -0.321394
v 0.383022 0.500000 -0.321394
v 0.433013 -0.500000 -0.250000
v 0.433013 0.500000 -0.250000
v 0.469846 -0.500000 -0.171010
v 0.469846 0.500000 -0.171010
v 0.492404 -0.500000 -0.086824
v 0.492404 0.500000 -0.086824
v 0.500000 -0.500000 -0.000000
v 0.500000 0.500000 -0.000000
v 0.492404 -0.500000 0.086824
v 0.492404 0.500000 0.086824
v 0.469846 -0.500000 0.171010
v 0.469846 0.500000 0.171010
v 0.433013 -0.500000 0.250000
v 0.433013 0.500000 0.250000
v 0.383022 -0.500000 0.321394
v 0.383022 0.500000 0.321394
v 0.321394 -0.500000 0.383022
v 0.321394 0.500000 0.383022
v 0.250000 -0.500000 0.433013
v 0.250000 0.500000 0.433013
v 0.171010 -0.500000 0.469846
v 0.171010 0.500000 0.469846
v 0.086824 -0.500000 0.492404
v 0.086824 0.500000 0.492404
vt 1.000000 1.000000
vt 0.972222 0.500000
vt 1.000000 0.500000
vt 0.972222 1.000000
vt 0.944444 0.500000
vt 0.944444 1.000000
vt 0.916667 0.500000
vt 0.916667 1.000000
vt 0.888889 0.500000
vt 0.888889 1.000000
vt 0.861111 0.500000
vt 0.861111 1.000000
vt 0.833333 0.500000
vt 0.833333 1.000000
vt 0.805555 0.500000
vt 0.805555 1.000000
vt 0.777778 0.500000
vt 0.777778 1.000000
vt 0.750000 0.500000
vt 0.750000 1.000000
vt 0.722222 0.500000
vt 0.722222 1.000000
vt 0.694444 0.500000
vt 0.694444 1.000000
vt 0.666667 0.500000
vt 0.666667 1.000000
vt 0.638889 0.500000
vt 0.638889 1.000000
vt 0.611111 0.500000
vt 0.611111 1.000000
vt 0.583333 0.500000
vt 0.583333 1.000000
vt 0.555555 0.500000
vt 0.555555 1.000000
vt 0.527778 0.500000
vt 0.527778 1.000000
vt 0.500000 0.500000
vt 0.500000 1.000000
vt 0.472222 0.500000
vt 0.472222 1.000000
vt 0.444444 0.500000
vt 0.444444 1.000000
vt 0.416666 0.500000
vt 0.416666 1.000000
vt 0.388889 0.500000
vt 0.388889 1.000000
vt 0.361111 0.500000
vt 0.361111 1.000000
vt 0.333333 0.500000
vt 0.333333 1.000000
vt 0.305555 0.500000
vt 0.305555 1.000000
vt 0.277777 0.500000
vt 0.277777 1.000000
vt 0.250000 0.500000
vt 0.250000 1.000000
vt 0.222222 0.500000
vt 0.222222 1.000000
vt 0.194444 0.500000
vt 0.194444 1.000000
vt 0.166666 0.500000
vt 0.166666 1.000000
vt 0.138889 0.500000
vt 0.138889 1.000000
vt 0.111111 0.500000
vt 0.111111 1.000000
vt 0.083333 0.500000
vt 0.083333 1.000000
vt 0.055555 0.500000
vt 0.332085 0.475526
vt 0.042154 0.370000
vt 0.404269 0.066149
vt 0.055555 1.000000
vt 0.027777 0.500000
vt 0.027777 1.000000
vt -0.000000 0.500000
vt 0.870000 0.042154
vt 0.566149 0.095731
vt 0.566149 0.404269
vt 0.291676 0.486354
vt 0.167915 0.475526
vt 0.250000 0.490000
vt 0.208324 0.486354
vt 0.130000 0.457846
vt 0.095731 0.433851
vt 0.066149 0.404269
vt 0.024474 0.332085
vt 0.013646 0.208324
vt 0.013646 0.291675
vt 0.010000 0.250000
vt 0.024474 0.167915
vt 0.042154 0.130000
vt 0.066149 0.095731
vt 0.095731 0.066149
vt 0.130000 0.042154
vt 0.250000 0.010000
vt 0.167915 0.024474
vt 0.208325 0.013646
vt 0.291676 0.013646
vt 0.332085 0.024474
vt 0.370000 0.042154
vt 0.433851 0.095731
vt 0.486354 0.208324
vt 0.457846 0.130000
vt 0.475526 0.167915
vt 0.490000 0.250000
vt 0.486354 0.291676
vt 0.475526 0.332085
vt 0.457846 0.370000
vt 0.433851 0.404269
vt 0.404269 0.433851
vt 0.370000 0.457846
vt -0.000000 1.000000
vt 0.708324 0.486354
vt 0.750000 0.490000
vt 0.791676 0.486354
vt 0.832085 0.475526
vt 0.870000 0.457846
vt 0.904269 0.433851
vt 0.975526 0.332085
vt 0.933851 0.404269
vt 0.957846 0.370000
vt 0.986354 0.291676
vt 0.990000 0.250000
vt 0.986354 0.208324
vt 0.975526 0.167915
vt 0.957846 0.130000
vt 0.933851 0.095731
vt 0.904269 0.066149
vt 0.832085 0.024474
vt 0.791676 0.013646
vt 0.750000 0.010000
vt 0.708325 0.013646
vt 0.667915 0.024474
vt 0.630000 0.042154
vt 0.595731 0.066149
vt 0.542154 0.130000
vt 0.524474 0.167915
vt 0.513646 0.208324
vt 0.510000 0.250000
vt 0.513646 0.291675
vt 0.524474 0.332085
vt 0.542154 0.370000
vt 0.595731 0.433851
vt 0.630000 0.457846
vt 0.667915 0.475526
vn -0.0872 0.0000 0.9962
vn -0.2588 0.0000 0.9659
vn -0.4226 0.0000 0.9063
vn -0.5736 0.0000 0.8192
vn -0.7071 0.0000 0.7071
vn -0.8192 0.0000 0.5736
vn -0.9063 0.0000 0.4226
vn -0.9659 0.0000 0.2588
vn -0.9962 0.0000 0.0872
vn -0.9962 0.0000 -0.0872
vn -0.9659 0.0000 -0.2588
vn -0.9063 0.0000 -0.4226
vn -0.8192 0.0000 -0.5736
vn -0.7071 0.0000 -0.7071
vn -0.5736 0.0000 -0.8192
vn -0.4226 0.0000 -0.9063
vn -0.2588 0.0000 -0.9659
vn -0.0872 0.0000 -0.9962
vn 0.0872 0.0000 -0.9962
vn 0.2588 0.0000 -0.9659
vn 0.4226 0.0000 -0.9063
vn 0.5736 0.0000 -0.8192
vn 0.7071 0.0000 -0.7071
vn 0.8192 0.0000 -0.5736
vn 0.9063 0.0000 -0.4226
vn 0.9659 0.0000 -0.2588
vn 0.9962 0.0000 -0.0872
vn 0.9962 0.0000 0.0872
vn 0.9659 0.0000 0.2588
vn 0.9063 0.0000 0.4226
vn 0.8192 0.0000 0.5736
vn 0.7071 0.0000 0.7071
vn 0.5736 0.0000 0.8192
vn 0.4226 0.0000 0.9063
vn 0.0000 1.0000 0.0000
vn 0.2588 0.0000 0.9659
vn 0.0872 0.0000 0.9962
vn 0.0000 -1.0000 0.0000
usemtl None
s off
f 2/1/1 3/2/1 1/3/1
f 4/4/2 5/5/2 3/2/2
f 6/6/3 7/7/3 5/5/3
f 8/8/4 9/9/4 7/7/4
f 10/10/5 11/11/5 9/9/5
f 12/12/6 13/13/6 11/11/6
f 14/14/7 15/15/7 13/13/7
f 16/16/8 17/17/8 15/15/8
f 18/18/9 19/19/9 17/17/9
f 20/20/10 21/21/10 19/19/10
f 22/22/11 23/23/11 21/21/11
f 24/24/12 25/25/12 23/23/12
f 26/26/13 27/27/13 25/25/13
f 28/28/14 29/29/14 27/27/14
f 30/30/15 31/31/15 29/29/15
f 32/32/16 33/33/16 31/31/16
f 34/34/17 35/35/17 33/33/17
f 36/36/18 37/37/18 35/35/18
f 38/38/19 39/39/19 37/37/19
f 40/40/20 41/41/20 39/39/20
f 42/42/21 43/43/21 41/41/21
f 44/44/22 45/45/22 43/43/22
f 46/46/23 47/47/23 45/45/23
f 48/48/24 49/49/24 47/47/24
f 50/50/25 51/51/25 49/49/25
f 52/52/26 53/53/26 51/51/26
f 54/54/27 55/55/27 53/53/27
f 56/56/28 57/57/28 55/55/28
f 58/58/29 59/59/29 57/57/29
f 60/60/30 61/61/30 59/59/30
f 62/62/31 63/63/31 61/61/31
f 64/64/32 65/65/32 63/63/32
f 66/66/33 67/67/33 65/65/33
f 68/68/34 69/69/34 67/67/34
f 6/70/35 62/71/35 30/72/35
f 70/73/36 71/74/36 69/69/36
f 72/75/37 1/76/37 71/74/37
f 31/77/38 47/78/38 63/79/38
f 2/1/1 4/4/1 3/2/1
f 4/4/2 6/6/2 5/5/2
f 6/6/3 8/8/3 7/7/3
f 8/8/4 10/10/4 9/9/4
f 10/10/5 12/12/5 11/11/5
f 12/12/6 14/14/6 13/13/6
f 14/14/7 16/16/7 15/15/7
f 16/16/8 18/18/8 17/17/8
f 18/18/9 20/20/9 19/19/9
f 20/20/10 22/22/10 21/21/10
f 22/22/11 24/24/11 23/23/11
f 24/24/12 26/26/12 25/25/12
f 26/26/13 28/28/13 27/27/13
f 28/28/14 30/30/14 29/29/14
f 30/30/15 32/32/15 31/31/15
f 32/32/16 34/34/16 33/33/16
f 34/34/17 36/36/17 35/35/17
f 36/36/18 38/38/18 37/37/18
f 38/38/19 40/40/19 39/39/19
f 40/40/20 42/42/20 41/41/20
f 42/42/21 44/44/21 43/43/21
f 44/44/22 46/46/22 45/45/22
f 46/46/23 48/48/23 47/47/23
f 48/48/24 50/50/24 49/49/24
f 50/50/25 52/52/25 51/51/25
f 52/52/26 54/54/26 53/53/26
f 54/54/27 56/56/27 55/55/27
f 56/56/28 58/58/28 57/57/28
f 58/58/29 60/60/29 59/59/29
f 60/60/30 62/62/30 61/61/30
f 62/62/31 64/64/31 63/63/31
f 64/64/32 66/66/32 65/65/32
f 66/66/33 68/68/33 67/67/33
f 68/68/34 70/73/34 69/69/34
f 6/70/35 4/80/35 70/81/35
f 4/80/35 2/82/35 70/81/35
f 2/82/35 72/83/35 70/81/35
f 70/81/35 68/84/35 66/85/35
f 66/85/35 64/86/35 62/71/35
f 62/71/35 60/87/35 54/88/35
f 60/87/35 58/89/35 54/88/35
f 58/89/35 56/90/35 54/88/35
f 54/88/35 52/91/35 50/92/35
f 50/92/35 48/93/35 46/94/35
f 46/94/35 44/95/35 38/96/35
f 44/95/35 42/97/35 38/96/35
f 42/97/35 40/98/35 38/96/35
f 38/96/35 36/99/35 34/100/35
f 34/100/35 32/101/35 30/72/35
f 30/72/35 28/102/35 22/103/35
f 28/102/35 26/104/35 22/103/35
f 26/104/35 24/105/35 22/103/35
f 22/103/35 20/106/35 18/107/35
f 18/107/35 16/108/35 14/109/35
f 14/109/35 12/110/35 10/111/35
f 10/111/35 8/112/35 14/109/35
f 8/112/35 6/70/35 14/109/35
f 70/81/35 66/85/35 62/71/35
f 54/88/35 50/92/35 46/94/35
f 38/96/35 34/100/35 46/94/35
f 34/100/35 30/72/35 46/94/35
f 22/103/35 18/107/35 30/72/35
f 18/107/35 14/109/35 30/72/35
f 6/70/35 70/81/35 62/71/35
f 62/71/35 54/88/35 30/72/35
f 54/88/35 46/94/35 30/72/35
f 14/109/35 6/70/35 30/72/35
f 70/73/36 72/75/36 71/74/36
f 72/75/37 2/113/37 1/76/37
f 71/114/38 1/115/38 3/116/38
f 3/116/38 5/117/38 7/118/38
f 7/118/38 9/119/38 15/120/38
f 9/119/38 11/121/38 15/120/38
f 11/121/38 13/122/38 15/120/38
f 15/120/38 17/123/38 19/124/38
f 19/124/38 21/125/38 23/126/38
f 23/126/38 25/127/38 27/128/38
f 27/128/38 29/129/38 31/77/38
f 31/77/38 33/130/38 35/131/38
f 35/131/38 37/132/38 39/133/38
f 39/133/38 41/134/38 43/135/38
f 43/135/38 45/136/38 47/78/38
f 47/78/38 49/137/38 51/138/38
f 51/138/38 53/139/38 55/140/38
f 55/140/38 57/141/38 59/142/38
f 59/142/38 61/143/38 63/79/38
f 63/79/38 65/144/38 71/114/38
f 65/144/38 67/145/38 71/114/38
f 67/145/38 69/146/38 71/114/38
f 71/114/38 3/116/38 7/118/38
f 15/120/38 19/124/38 31/77/38
f 19/124/38 23/126/38 31/77/38
f 23/126/38 27/128/38 31/77/38
f 31/77/38 35/131/38 47/78/38
f 35/131/38 39/133/38 47/78/38
f 39/133/38 43/135/38 47/78/38
f 47/78/38 51/138/38 63/79/38
f 51/138/38 55/140/38 63/79/38
f 55/140/38 59/142/38 63/79/38
f 71/114/38 7/118/38 63/79/38
f 7/118/38 15/120/38 63/79/38
f 15/120/38 31/77/38 63/79/38
